<svg xmlns:dc="http://purl.org/dc/elements/1.1/" xmlns:cc="http://creativecommons.org/ns#" xmlns:rdf="http://www.w3.org/1999/02/22-rdf-syntax-ns#" xmlns="http://www.w3.org/2000/svg" width="154.78" height="99.3" viewBox="0 0 154.78 99.3" xml:space="preserve" version="1.1" color-interpolation-filters="sRGB" fill="none" fill-rule="evenodd" font-size="12" overflow="visible" stroke-linecap="square" stroke-miterlimit="3">
  <metadata>
    <rdf:RDF>
      <cc:Work>
        <dc:format>
          image/svg+xml
        </dc:format>
        <dc:type rdf:resource="http://purl.org/dc/dcmitype/StillImage"/>
        <dc:title>
          Boar Courant
        </dc:title>
        <dc:date>
          06/13/2013
        </dc:date>
        <dc:creator>
          <cc:Agent>
            <dc:title>
              Christie L. Ward
            </dc:title>
          </cc:Agent>
        </dc:creator>
        <dc:rights>
          <cc:Agent>
            <dc:title>
              Creative Commons Attribution-ShareAlike 3.0 Unported (CC BY-SA 3.0) license (http://creativecommons.org/licenses/by-sa/3.0/). No attribution required for heraldic or artistic use by members of the Society for Creative Anachronism, Inc.
            </dc:title>
          </cc:Agent>
        </dc:rights>
        <dc:source>
          Microsoft Visio 2010
        </dc:source>
        <cc:license rdf:resource="http://creativecommons.org/licenses/by-sa/4.0/"/>
      </cc:Work>
      <cc:License rdf:about="http://creativecommons.org/licenses/by-sa/4.0/">
        <cc:permits rdf:resource="http://creativecommons.org/ns#Reproduction"/>
        <cc:permits rdf:resource="http://creativecommons.org/ns#Distribution"/>
        <cc:requires rdf:resource="http://creativecommons.org/ns#Notice"/>
        <cc:requires rdf:resource="http://creativecommons.org/ns#Attribution"/>
        <cc:permits rdf:resource="http://creativecommons.org/ns#DerivativeWorks"/>
        <cc:requires rdf:resource="http://creativecommons.org/ns#ShareAlike"/>
      </cc:License>
    </rdf:RDF>
  </metadata>
  <title>Boar Courant</title>
  <g transform="translate(1.2508,1.2516)">
    <title>Page-1</title>
    <g transform="translate(1.5,-1.5)">
      <title>Boar Courant</title>
      <g transform="rotate(70,65.698,125.57)" stroke="#808080">
        <title>Sheet.3</title>
        <path d="m 14.29,48.99 a 14.353,14.353 -4.48 0 0 -11.21,23.23 8.8421,8.8421 -1.34 0 0 17.67,0.52 16.15,16.15 -179.9 0 0 5.89,5.82 l 4.91,11.25 a 69.475,69.475 -177.47 0 0 -0.13,6.99 8.3544,8.3544 172.24 0 1 5.9,-3.31 2.3706,2.3706 -24.68 0 0 0.64,-4.4 10.446,10.446 5.7 0 1 -4.47,-9.11 8.6014,8.6014 -180 0 0 -0.65,-10.6 3.5702,3.5702 -180 0 0 -3.1,-1.04 5.6331,5.6331 0 0 1 -2.59,-8.28 21.059,21.059 -22.6 0 0 -12.86,-11.07 z" stroke="#000" stroke-linecap="round" stroke-linejoin="round" stroke-width="1.5"/>
      </g>
      <g transform="rotate(10,190.45,218.8)" stroke="#808080">
        <title>Sheet.6</title>
        <path d="m 47.43,84.39 a 10.431,10.431 -180 0 0 -8.51,-17.04 47.733,47.733 -180 0 0 -21.17,14.49 5.5153,5.5153 93.21 0 1 -2.25,4.28 12.487,12.487 0 0 1 -7.27,1.2 4.8173,4.8173 -89.79 0 0 -6.79,3.02 32.316,32.316 -91.19 0 0 -1.44,1.13 6.3695,6.3695 -88.62 0 0 5.46,5.33 17.928,17.928 0 0 1 6.47,-3.38 84.165,84.165 -180 0 0 35.5,-9.03 z" stroke="#000" stroke-linecap="round" stroke-linejoin="round" stroke-width="1.5"/>
      </g>
      <g transform="rotate(-25.3,-135.35,-5.5822)">
        <title>Sheet.8</title>
        <path d="m 2.33,96.37 a 5.6081,5.6081 -180 0 0 7.67,-4.19 l -0.13,0.02 a 11.588,11.588 -146.86 0 0 -6.04,-14.76 4.4189,4.4189 161.82 0 1 -0.22,7.45 6.9154,6.9154 -180 0 0 -1.12,11.39 z" stroke="#000" stroke-linecap="round" stroke-linejoin="round" stroke-width="1.5"/>
      </g>
      <g transform="translate(0,-6.1018)">
        <title>Sheet.9</title>
        <path d="m 119.96,32.3 a 65.929,65.929 -180 0 0 -15.11,-5.34 8.1671,8.1671 -180 0 0 1.33,-8.44 7.2624,7.2624 0 0 1 -6.61,5.91 9.2116,9.2116 -180 0 0 1.9,-7.88 8.7003,8.7003 0 0 1 -7.1,5.35 11.047,11.047 -180 0 0 0.91,-8.44 18.421,18.421 0 0 1 -8.22,8.16 11.941,11.941 -180 0 0 2.81,-8.44 l -6.89,6.61 a 10.179,10.179 -180 0 0 -0.35,-10.41 17.292,17.292 0 0 1 -6.19,10.55 12.169,12.169 -0.39 0 0 -0.07,-9.7 21.55,21.55 0 0 1 -6.68,10.26 17.768,17.768 -180 0 0 0.77,-10.26 18.553,18.553 24.14 0 1 -6.68,10.68 20.045,20.045 -180 0 0 0.85,-11.81 28.12,28.12 24.63 0 1 -7.32,12.52 32.288,32.288 -180 0 0 1.2,-11.53 23.058,23.058 18.27 0 1 -6.75,11.25 l -0.28,-8.86 a 21.382,21.382 165.61 0 1 -5.21,11.25 23.461,23.461 66.41 0 1 -2.6,0.56 11.588,11.588 -149.28 0 0 -6.04,-14.77 4.4189,4.4189 162.17 0 1 -0.21,7.46 6.9154,6.9154 -180 0 0 -1.13,11.39 l -22.64,12.37 a 10.174,10.174 0 0 1 -9.7,-0.84 1.9938,1.9938 -180 0 0 -3.73,-1.41 13.056,13.056 -180 0 0 2.32,10.13 566.58,566.58 -176.61 0 0 22.64,1.54 72.28,72.28 0 0 1 -14.91,3.24 2.285,2.285 -180 1 0 0.71,4.5 56.069,56.069 -180 0 0 10.97,-1.41 11.59,11.59 0 0 1 8.15,-0.7 13.709,13.709 -180 0 0 18.42,-0.14 13.789,13.789 -180 0 0 4.08,-15.19 14.425,14.425 0 0 1 -4.15,15.19 9.9011,9.9011 -180 0 0 9.85,9.56 2.4793,2.4793 0 0 1 -1.69,4.5 l -7.31,-0.56 a 4.1948,4.1948 -180 0 0 -6.05,4.5 44.46,44.46 -0.88 0 0 -2.25,1.12 6.1972,6.1972 -29.74 0 0 5.56,4.93 17.928,17.928 0 0 1 6.46,-3.38 84.165,84.165 -180 0 0 37.34,-9.98 11.325,11.325 0.89 0 1 15.75,0.28 11.587,11.587 -179.11 0 0 -15.82,-0.28 106.18,106.18 0 0 1 15.82,0.28 20.289,20.289 -178.2 0 0 22.15,6.18 17.56,17.56 -179.07 0 0 6.4,6.33 l 5.34,12.24 a 32.691,32.691 -105.74 0 0 -1.58,2.88 8.5883,8.5883 169.26 0 1 6.5,2.46 3.5804,3.5804 -180 0 0 3.66,-5.62 12.614,12.614 0 0 1 -6.47,-10.41 9.3525,9.3525 -180 0 0 -0.7,-11.53 3.8819,3.8819 -180 0 0 -3.38,-1.13 6.1251,6.1251 0 0 1 -2.81,-9 26.047,26.047 -180 0 0 -13.22,-21.37 6.9217,6.9217 -180 0 0 8.02,-7.6 5.8121,5.8121 0 0 1 6.61,-9 3.2723,3.2723 86.65 1 1 -2.11,5.91 4.2305,4.2305 -93.35 0 0 5.62,2.81 6.9087,6.9087 -87.81 0 0 0.99,-12.37 11.317,11.317 -94.57 0 0 -17.3,9.28 4.3708,4.3708 95.64 0 1 -3.87,5.62 z" stroke="#000" stroke-linecap="round" stroke-linejoin="round" stroke-width="1.5"/>
      </g>
      <g transform="translate(6.4253,-48.609)" stroke="#808080">
        <title>Sheet.10</title>
        <path d="m 3.92,96.19 a 14.058,14.058 94.36 0 1 2.25,-21.38 15.865,15.865 -88.9 0 0 4.22,20.04 5.1589,5.1589 83.96 0 1 -6.47,1.34 z" fill="#fff" stroke="#000" stroke-linecap="round" stroke-linejoin="round" stroke-width="1.5"/>
      </g>
      <g transform="translate(74.611,-30.094)" stroke="#808080">
        <title>Sheet.11</title>
        <path d="m 0,96.8 a 7.5661,7.5661 -69.47 0 0 2.95,-10.13 9.3786,9.3786 45 0 1 0,-9.56" stroke="#000" stroke-linecap="round" stroke-linejoin="round" stroke-width="1.5"/>
      </g>
      <g transform="rotate(97.072,76.362,117.13)" stroke="#808080">
        <title>Sheet.12</title>
        <path d="m 0,91.67 a 11.345,11.574 -180 0 0 18.85,0" stroke="#000" stroke-linecap="round" stroke-linejoin="round" stroke-width="1.5"/>
      </g>
      <g transform="rotate(5.7343,770.55,531.9)" stroke="#808080">
        <title>Sheet.13</title>
        <path d="m 0,96.8 a 113.01,113.01 0 0 1 67.56,0" stroke="#000" stroke-linecap="round" stroke-linejoin="round" stroke-width="1.5"/>
      </g>
      <g transform="rotate(-25.837,-41.941,-45.136)" stroke="#808080">
        <title>Sheet.14</title>
        <path d="m 0,96 a 9.1958,9.429 -180 0 0 7.42,0" stroke="#000" stroke-linecap="round" stroke-linejoin="round" stroke-width="1.5"/>
      </g>
      <path d="m 38.797,19.637 a 5.5657,5.5657 0 0 1 1.96,-8.16 3.4333,3.4333 0 0 0 -0.56,4.78 1.8699,1.8699 0 0 1 -1.4,3.38 z" fill="#000" stroke="#000" stroke-linecap="round" stroke-linejoin="round" stroke-width="1.5"/>
      <g>
        <g transform="rotate(20,57.263,306.13)" stroke="#808080">
          <title>Sheet.4</title>
          <path d="m 3.49,88.75 a 127.77,127.77 -180 0 0 -3.49,4.4 3.224,3.224 -180 0 0 4.01,1.94 l 1.87,-3.49 -1.81,3.49 a 3.9411,3.9411 -180 0 0 4.72,1.42 l 1.43,-5.04 a 9.4157,9.4157 -180 0 0 -6.73,-2.72 z" stroke="#000" stroke-linecap="round" stroke-linejoin="round" stroke-width="1.5"/>
        </g>
        <path d="m 24.82,60.277 a 138.93,138.93 0 0 0 -5.464,2.727 3.5056,3.5056 0 0 0 3.06,3.754 l 3.454,-2.581 -3.391,2.611 a 4.2853,4.2853 45 0 0 3.994,3.572 l 3.725,-4.319 a 10.238,10.238 0 0 0 -5.378,-5.764 z" stroke="#000" stroke-linecap="round" stroke-linejoin="round" stroke-width="1.5"/>
        <g transform="translate(134.52)" stroke="#808080">
          <title>Sheet.17</title>
          <path d="m 3.8,88.05 a 138.93,138.93 -180 0 0 -3.8,4.78 3.5056,3.5056 -180 0 0 4.36,2.11 l 2.04,-3.8 -1.97,3.8 a 4.2853,4.2853 -180 0 0 5.13,1.55 l 1.55,-5.49 a 10.238,10.238 -180 0 0 -7.31,-2.95 z" stroke="#000" stroke-linecap="round" stroke-linejoin="round" stroke-width="1.5"/>
        </g>
        <g transform="rotate(15,94.394,217.2)" stroke="#808080">
          <title>Sheet.18</title>
          <path d="m 3.8,88.05 a 138.93,138.93 -180 0 0 -3.8,4.78 3.5056,3.5056 -180 0 0 4.36,2.11 l 2.04,-3.8 -1.97,3.8 a 4.2853,4.2853 -180 0 0 5.13,1.55 l 1.55,-5.49 a 10.238,10.238 -180 0 0 -7.31,-2.95 z" stroke="#000" stroke-linecap="round" stroke-linejoin="round" stroke-width="1.5"/>
        </g>
      </g>
      <g transform="translate(26.798,-62.063)">
        <title>Sheet.19</title>
        <g transform="rotate(-30,3.4747,93.249)">
          <title>Sheet.20</title>
          <path d="m 0.01,92.3 a 3.8171,4.1669 -180 1 0 7.6,-0.12 z" fill="#000" stroke="#000" stroke-linecap="round" stroke-linejoin="round" stroke-width="1.5"/>
        </g>
        <g transform="rotate(-30,3.8873,93.114)">
          <title>Sheet.21</title>
          <path d="m 7.68,92.03 -3.53,0.01 a 1.9988,1.831 -81.38 0 0 0.38,2.86 5.7412,5.2594 90.74 0 1 -3.21,-2.83 h -1.29 a 3.858,4.2115 -180 1 0 7.65,-0.04 z" fill="#fff" stroke="#000" stroke-linecap="round" stroke-linejoin="round" stroke-width="1.5"/>
        </g>
      </g>
    </g>
  </g>
</svg>
