<svg version="1.1" height="509.21" width="343.76" xmlns="http://www.w3.org/2000/svg" xmlns:rdf="http://www.w3.org/1999/02/22-rdf-syntax-ns#" xmlns:cc="http://creativecommons.org/ns#" xmlns:dc="http://purl.org/dc/elements/1.1/">
  <metadata>
    <rdf:RDF>
      <cc:Work>
        <dc:format>
          image/svg+xml
        </dc:format>
        <dc:type rdf:resource="http://purl.org/dc/dcmitype/StillImage"/>
        <dc:creator>
          <cc:Agent>
            <dc:title>
              vlk2020
            </dc:title>
          </cc:Agent>
        </dc:creator>
      </cc:Work>
    </rdf:RDF>
  </metadata>
  <g transform="translate(-128.12,-45.556)" stroke="#000">
    <path d="m 336.54,279.52 c 0,0 20.67,15.48 18.2,23.72 15.64,11.1 30.46,72.02 25.11,84.37 6.22,5.66 8.52,21.2 14.3,36.2 7.94,20.5 13.09,36.27 12.45,41.18 11.11,10.7 25.51,36.22 32.51,53.09 5.84,14.07 10.7,28.4 11.53,32.1 0.82,3.7 -2.89,5.76 -4.95,0.83 -2.06,-4.94 -10.69,-31.28 -10.69,-31.28 0,0 -26.34,-35.81 -30.88,-48.15 -7.41,-4.94 -31.69,-67.1 -31.69,-79.85 -3.58,-3.78 -6.67,-20.9 -11.27,-44.87 -3.78,-19.91 -12.85,-34.46 -11.77,-37.45 -6.18,-1.88 -15.55,-11.84 -19.53,-18.94 0,0 6.28,-3.13 6.68,-10.95 z" stroke-width="1.695" stroke-linejoin="round"/>
    <path d="m 336.35,264.92 c 4.24,-1.19 22.07,4.43 24.15,9.56 17.69,2.88 45.28,38.69 46.92,51.44 10.69,7.42 32.1,55.99 31.69,63.8 7.82,7.41 22.63,39.1 22.63,39.1 0,0 7.83,21.41 9.06,26.75 1.24,5.35 -2.87,7 -4.53,1.23 -1.64,-5.76 -8.64,-25.5 -8.64,-25.5 0,0 -15.22,-23.88 -23.05,-38.29 -9.05,-5.76 -31.69,-54.74 -33.75,-62.15 -10.7,-4.11 -12.96,-17.51 -25.51,-28.4 -6.18,-5.35 -16.47,-13.17 -17.7,-18.93 -7.75,1.72 -16.47,-0.4 -21.08,-6.01 0,0 0.53,-7.26 -0.19,-12.6 z" stroke-width="1.695" stroke-linejoin="round"/>
    <path d="m 332.45,249.64 c 6.12,-2.78 23.01,-4.53 27.23,-1.09 17.69,-11.11 70.78,10.29 70.78,10.29 0,0 18.93,-54.33 27.17,-62.97 -6.58,-14.82 -13.18,-39.1 -15.64,-48.99 -1.65,-11.11 -4.12,-31.69 -4.95,-35.39 -0.82,-3.7 4.12,-4.11 4.95,-0.41 0.83,3.7 4.94,34.57 4.94,34.57 0,0 19.07,48.85 17.7,53.1 -6.18,19.34 -23.47,67.91 -31.28,68.74 -7.82,0.82 -64.62,-2.07 -72.85,-7.83 -7.64,3.05 -19.36,4.2 -24.65,2.61 0,0 0,-6.77 -3.4,-12.63 z" stroke-width="2"/>
    <path d="m 326.57,236.4 c 4.19,-3.67 13.2,-10.59 18.43,-9.72 9.89,-18.52 72.86,-18.93 72.86,-18.93 0,0 -4.12,-21.81 4.12,-72.03 -11.53,-18.11 -25.11,-35.806 -32.51,-47.334 -1.12,-15.824 -4.12,-33.755 -4.95,-38.28 -0.82,-4.531 3.71,-4.932 4.95,0 1.23,4.936 4.52,36.637 4.52,36.637 0,0 35.82,44.447 35.82,50.207 0,5.77 -2.47,67.51 -4.94,73.68 -2.47,6.17 -4.94,7.4 -12.35,9.05 -7.42,1.65 -52.28,15.23 -61.75,13.17 -1.77,7.92 -13.48,12.85 -19.26,15.48 0,0 -3.92,-6.62 -4.94,-11.93 z" stroke-width="2"/>
    <g>
      <path d="m 322.24,223.83 5.18,-16.98 c 0,0 -10.8,-15.56 -12.87,-22.97 -2.05,-7.42 2.06,-9.47 7.4,-2.06 5.36,7.41 11.53,19.75 11.95,24.69 0.4,4.94 -6.48,26.8 -7.61,29.1 -0.88,-10.08 -4.05,-11.78 -4.05,-11.78 z" stroke-width="1.695" stroke-linejoin="round"/>
    </g>
  </g>
  <g transform="matrix(-1,0,0,1,471.88,-45.556)" stroke="#000" stroke-width="1.695" stroke-linejoin="round">
    <path d="m 336.54,279.52 c 0,0 20.67,15.48 18.2,23.72 15.64,11.1 30.46,72.02 25.11,84.37 6.22,5.66 8.52,21.2 14.3,36.2 7.94,20.5 13.09,36.27 12.45,41.18 11.11,10.7 25.51,36.22 32.51,53.09 5.84,14.07 10.7,28.4 11.53,32.1 0.82,3.7 -2.89,5.76 -4.95,0.83 -2.06,-4.94 -10.69,-31.28 -10.69,-31.28 0,0 -26.34,-35.81 -30.88,-48.15 -7.41,-4.94 -31.69,-67.1 -31.69,-79.85 -3.58,-3.78 -6.67,-20.9 -11.27,-44.87 -3.78,-19.91 -12.85,-34.46 -11.77,-37.45 -6.18,-1.88 -15.55,-11.84 -19.53,-18.94 0,0 6.28,-3.13 6.68,-10.95 z"/>
    <path d="m 336.35,264.92 c 4.24,-1.19 22.07,4.43 24.15,9.56 17.69,2.88 45.28,38.69 46.92,51.44 10.69,7.42 32.1,55.99 31.69,63.8 7.82,7.41 22.63,39.1 22.63,39.1 0,0 7.83,21.41 9.06,26.75 1.24,5.35 -2.87,7 -4.53,1.23 -1.64,-5.76 -8.64,-25.5 -8.64,-25.5 0,0 -15.22,-23.88 -23.05,-38.29 -9.05,-5.76 -31.69,-54.74 -33.75,-62.15 -10.7,-4.11 -12.96,-17.51 -25.51,-28.4 -6.18,-5.35 -16.47,-13.17 -17.7,-18.93 -7.75,1.72 -16.47,-0.4 -21.08,-6.01 0,0 0.53,-7.26 -0.19,-12.6 z"/>
    <path d="m 332.45,249.64 c 6.12,-2.78 23.01,-4.53 27.23,-1.09 17.69,-11.11 70.78,10.29 70.78,10.29 0,0 18.93,-54.33 27.17,-62.97 -6.58,-14.82 -13.18,-39.1 -15.64,-48.99 -1.65,-11.11 -4.12,-31.69 -4.95,-35.39 -0.82,-3.7 4.12,-4.11 4.95,-0.41 0.83,3.7 4.94,34.57 4.94,34.57 0,0 19.07,48.85 17.7,53.1 -6.18,19.34 -23.47,67.91 -31.28,68.74 -7.82,0.82 -64.62,-2.07 -72.85,-7.83 -7.64,3.05 -19.36,4.2 -24.65,2.61 0,0 0,-6.77 -3.4,-12.63 z" stroke-width="2"/>
    <path d="m 326.57,236.4 c 4.19,-3.67 13.2,-10.59 18.43,-9.72 9.89,-18.52 72.86,-18.93 72.86,-18.93 0,0 -4.12,-21.81 4.12,-72.03 -11.53,-18.11 -25.11,-35.806 -32.51,-47.334 -1.12,-15.824 -4.12,-33.755 -4.95,-38.28 -0.82,-4.531 3.71,-4.932 4.95,0 1.23,4.936 4.52,36.637 4.52,36.637 0,0 35.82,44.447 35.82,50.207 0,5.77 -2.47,67.51 -4.94,73.68 -2.47,6.17 -4.94,7.4 -12.35,9.05 -7.42,1.65 -52.28,15.23 -61.75,13.17 -1.77,7.92 -13.48,12.85 -19.26,15.48 0,0 -3.92,-6.62 -4.94,-11.93 z" stroke-width="2"/>
    <g>
      <path d="m 322.24,223.83 5.18,-16.98 c 0,0 -10.8,-15.56 -12.87,-22.97 -2.05,-7.42 2.06,-9.47 7.4,-2.06 5.36,7.41 11.53,19.75 11.95,24.69 0.4,4.94 -6.48,26.8 -7.61,29.1 -0.88,-10.08 -4.05,-11.78 -4.05,-11.78 z"/>
    </g>
  </g>
  <path d="m 171.88,169.09 c -10.93,0 -23.97,2.64 -25.1,7.92 -5.86,27.25 -14.4,26.34 -13.18,54.33 0.94,21.03 9.43,25.61 20.18,22.47 9.48,-2.76 14.97,-2.74 18.1,-2.88 3.13,0.14 8.62,0.12 18.1,2.88 10.75,3.14 19.24,-1.44 20.18,-22.47 1.22,-27.99 -7.32,-27.08 -13.18,-54.33 -1.13,-5.28 -14.17,-7.92 -25.1,-7.92 z" stroke="#000" stroke-width="1.695" stroke-linejoin="round"/>
  <path d="m 171.88,247.39 c -6.45,0 -37.86,0 -47.34,28.39 -9.45,28.41 -19.75,80.67 9.47,101.67 23.32,16.94 28,16.06 37.87,16.06 9.87,0 14.55,0.88 37.87,-16.06 29.22,-21 18.92,-73.26 9.47,-101.67 -9.48,-28.39 -40.89,-28.39 -47.34,-28.39 z" stroke="#000" stroke-width="1.695" stroke-linejoin="round"/>
  <g transform="translate(-128.12,-45.556)" stroke="#000" stroke-width=".3">
    <ellipse cx="318.71" cy="289.82" rx="5.685" ry="2.719" transform="rotate(-6.0676)" stroke-linejoin="round"/>
    <ellipse transform="rotate(-32.182)" ry="2.719" rx="5.685" cy="380.56" cx="161.67" stroke-linejoin="round"/>
    <ellipse cx="422.08" cy="136.04" rx="5.685" ry="2.719" transform="rotate(20.507)" stroke-linejoin="round"/>
    <ellipse transform="rotate(51.181)" ry="2.719" rx="5.685" cy="-82.223" cx="446.13" stroke-linejoin="round"/>
    <ellipse cx="302.24" cy="300.05" rx="5.685" ry="2.719" transform="rotate(-13.012)" stroke-linejoin="round"/>
    <ellipse ry="3.545" rx="7.412" cy="299.23" cx="324.54" transform="rotate(-13.012)" stroke-linejoin="round"/>
    <ellipse ry="2.719" rx="5.685" cy="300.05" cx="348.04" transform="rotate(-13.012)" stroke-linejoin="round"/>
    <ellipse transform="rotate(-0.996)" ry="2.719" rx="5.685" cy="260.57" cx="365.76" stroke-linejoin="round"/>
    <ellipse cx="423.89" cy="204.1" rx="7.487" ry="3.581" transform="rotate(7.3522)" stroke-linejoin="round"/>
    <ellipse cx="446.06" cy="205.13" rx="5.685" ry="2.719" transform="rotate(7.3522)" stroke-linejoin="round"/>
    <ellipse transform="rotate(36.702)" cx="465.89" cy="9.127" rx="5.685" ry="2.719" stroke-linejoin="round"/>
    <ellipse ry="3.293" rx="6.886" cy="-75.586" cx="482.74" transform="rotate(46.994)" stroke-linejoin="round"/>
    <ellipse transform="rotate(60.731)" ry="2.719" rx="5.685" cy="-190.17" cx="473.77" stroke-linejoin="round"/>
    <ellipse ry="2.719" rx="5.685" cy="-153.47" cx="454.78" transform="rotate(60.192)" stroke-linejoin="round"/>
    <ellipse transform="rotate(74.636)" cx="431.12" cy="-263.26" rx="6.886" ry="3.293" stroke-linejoin="round"/>
    <ellipse cx="412.34" cy="-334.38" rx="5.685" ry="2.719" transform="rotate(84.221)" stroke-linejoin="round"/>
    <ellipse cx="454.59" cy="-45.348" rx="7.597" ry="3.633" transform="rotate(51.181)" stroke-linejoin="round"/>
    <ellipse transform="rotate(26.753)" ry="3.633" rx="7.597" cy="166.37" cx="444.91" stroke-linejoin="round"/>
    <ellipse cx="402.12" cy="286.54" rx="7.597" ry="3.633" transform="rotate(13.334)" stroke-linejoin="round"/>
    <ellipse transform="rotate(-14.075)" ry="3.633" rx="7.597" cy="457.8" cx="220.48" stroke-linejoin="round"/>
    <ellipse cx="-6.916" cy="-520.67" rx="7.597" ry="3.633" transform="rotate(142.7)" stroke-linejoin="round"/>
    <ellipse cx="-288.96" cy="290.4" rx="11.289" ry="5.399" transform="rotate(-93.928)" stroke-linejoin="round"/>
    <ellipse cx="308.87" cy="222.96" rx="5.947" ry="4.787" fill="#fff" stroke-linejoin="round"/>
    <ellipse cx="309.29" cy="222.31" rx="4.024" ry="1.23" stroke-linejoin="round"/>
  </g>
  <g transform="matrix(-1,0,0,1,471.88,-45.556)" stroke="#000" stroke-width=".3" stroke-linejoin="round">
    <ellipse cx="318.71" cy="289.82" rx="5.685" ry="2.719" transform="rotate(-6.0676)"/>
    <ellipse transform="rotate(-32.182)" ry="2.719" rx="5.685" cy="380.56" cx="161.67"/>
    <ellipse cx="422.08" cy="136.04" rx="5.685" ry="2.719" transform="rotate(20.507)"/>
    <ellipse transform="rotate(51.181)" ry="2.719" rx="5.685" cy="-82.223" cx="446.13"/>
    <ellipse cx="302.24" cy="300.05" rx="5.685" ry="2.719" transform="rotate(-13.012)"/>
    <ellipse ry="3.545" rx="7.412" cy="299.23" cx="324.54" transform="rotate(-13.012)"/>
    <ellipse ry="2.719" rx="5.685" cy="300.05" cx="348.04" transform="rotate(-13.012)"/>
    <ellipse transform="rotate(-0.996)" ry="2.719" rx="5.685" cy="260.57" cx="365.76"/>
    <ellipse cx="423.89" cy="204.1" rx="7.487" ry="3.581" transform="rotate(7.3522)"/>
    <ellipse cx="446.06" cy="205.13" rx="5.685" ry="2.719" transform="rotate(7.3522)"/>
    <ellipse transform="rotate(36.702)" cx="465.89" cy="9.127" rx="5.685" ry="2.719"/>
    <ellipse ry="3.293" rx="6.886" cy="-75.586" cx="482.74" transform="rotate(46.994)"/>
    <ellipse transform="rotate(60.731)" ry="2.719" rx="5.685" cy="-190.17" cx="473.77"/>
    <ellipse ry="2.719" rx="5.685" cy="-153.47" cx="454.78" transform="rotate(60.192)"/>
    <ellipse transform="rotate(74.636)" cx="431.12" cy="-263.26" rx="6.886" ry="3.293"/>
    <ellipse cx="412.34" cy="-334.38" rx="5.685" ry="2.719" transform="rotate(84.221)"/>
    <ellipse cx="454.59" cy="-45.348" rx="7.597" ry="3.633" transform="rotate(51.181)"/>
    <ellipse transform="rotate(26.753)" ry="3.633" rx="7.597" cy="166.37" cx="444.91"/>
    <ellipse cx="402.12" cy="286.54" rx="7.597" ry="3.633" transform="rotate(13.334)"/>
    <ellipse transform="rotate(-14.075)" ry="3.633" rx="7.597" cy="457.8" cx="220.48"/>
    <ellipse cx="-6.916" cy="-520.67" rx="7.597" ry="3.633" transform="rotate(142.7)"/>
    <ellipse cx="-288.96" cy="290.4" rx="11.289" ry="5.399" transform="rotate(-93.928)"/>
    <ellipse cx="308.87" cy="222.96" rx="5.947" ry="4.787" fill="#fff"/>
    <ellipse cx="309.29" cy="222.31" rx="4.024" ry="1.23"/>
  </g>
</svg>
